<!-- Generated by IcoMoon.io -->
<svg version="1.1" xmlns="http://www.w3.org/2000/svg" width="32" height="32" viewBox="0 0 32 32">
<title>envelope-hover</title>
<path   d="M29 4.977h-26c-1.654 0-3 1.345-3 2.999v17.994c0 1.654 1.346 2.999 3 2.999h26c1.654 0 3-1.345 3-2.999v-17.994c0-1.654-1.346-2.999-3-2.999zM29 6.976c0.136 0 0.265 0.028 0.383 0.077l-13.383 11.595-13.383-11.595c0.118-0.049 0.247-0.077 0.383-0.077h26zM29 26.969h-26c-0.552 0-1-0.448-1-1v-16.804l13.345 11.561c0.188 0.163 0.422 0.244 0.655 0.244s0.467-0.081 0.655-0.244l13.345-11.561v16.804c0 0.552-0.448 1-1 1z"></path>
</svg>
