<!-- Generated by IcoMoon.io -->
<svg version="1.1" xmlns="http://www.w3.org/2000/svg" width="32" height="32" viewBox="0 0 32 32">
<title>Logo6</title>
<path   d="M16.128 15.218c-0.134-0.178-0.198-0.389-0.183-0.6v-0.87c0-0.267 0.061-0.47 0.182-0.608s0.329-0.208 0.624-0.207c0.277 0 0.473 0.059 0.59 0.177 0.127 0.151 0.188 0.335 0.174 0.521v0.205h-0.495v-0.207c0.002-0.068-0.003-0.136-0.014-0.203-0.007-0.046-0.032-0.088-0.071-0.12-0.051-0.035-0.115-0.051-0.179-0.047-0.068-0.004-0.135 0.013-0.189 0.050-0.043 0.036-0.072 0.082-0.082 0.133-0.014 0.071-0.021 0.143-0.019 0.215v1.056c-0.008 0.102 0.014 0.204 0.064 0.297 0.025 0.031 0.059 0.056 0.099 0.072s0.084 0.021 0.128 0.017c0.063 0.005 0.126-0.013 0.175-0.048 0.040-0.035 0.066-0.080 0.074-0.128 0.012-0.070 0.017-0.141 0.015-0.212v-0.214h0.495v0.196c0.014 0.194-0.046 0.386-0.171 0.547-0.114 0.129-0.308 0.194-0.593 0.194s-0.5-0.069-0.623-0.213z"></path>
<path   d="M18.191 15.226c-0.125-0.136-0.188-0.333-0.188-0.594v-0.916c0-0.259 0.063-0.454 0.188-0.587s0.334-0.199 0.628-0.198c0.291 0 0.499 0.066 0.625 0.198s0.189 0.329 0.189 0.587v0.916c0 0.259-0.064 0.457-0.191 0.593s-0.334 0.205-0.623 0.205c-0.288 0-0.502-0.069-0.628-0.204zM19.049 15.007c0.045-0.085 0.065-0.178 0.059-0.271v-1.121c0.006-0.091-0.014-0.182-0.058-0.266-0.025-0.032-0.060-0.057-0.101-0.073s-0.086-0.021-0.131-0.016c-0.044-0.005-0.090 0-0.131 0.016s-0.076 0.041-0.102 0.073c-0.045 0.083-0.066 0.174-0.059 0.266v1.126c-0.006 0.093 0.014 0.186 0.059 0.271 0.029 0.029 0.064 0.051 0.104 0.067s0.083 0.024 0.127 0.024c0.044 0 0.087-0.008 0.127-0.024s0.076-0.039 0.104-0.067v-0.005z"></path>
<path   d="M20.227 12.958h0.533l0.401 1.689 0.41-1.689h0.519l0.052 2.438h-0.384l-0.041-1.695-0.396 1.695h-0.308l-0.41-1.701-0.038 1.701h-0.388l0.048-2.438z"></path>
<path   d="M22.741 12.958h0.831c0.479 0 0.718 0.231 0.718 0.692 0 0.442-0.252 0.663-0.756 0.662h-0.283v1.084h-0.513l0.003-2.438zM23.451 14c0.051 0.006 0.102 0.002 0.151-0.012s0.093-0.036 0.131-0.065c0.059-0.082 0.085-0.179 0.074-0.275 0.003-0.074-0.006-0.149-0.025-0.221-0.007-0.024-0.020-0.047-0.038-0.067s-0.040-0.037-0.065-0.049c-0.071-0.029-0.15-0.043-0.229-0.039h-0.199v0.729h0.199z"></path>
<path   d="M25.029 12.958h0.551l0.565 2.438h-0.478l-0.112-0.562h-0.491l-0.115 0.562h-0.485l0.565-2.438zM25.5 14.552l-0.192-1.023-0.192 1.023h0.384z"></path>
<path   d="M26.601 12.958h0.359l0.687 1.391v-1.391h0.426v2.438h-0.342l-0.691-1.452v1.452h-0.44l0.001-2.438z"></path>
<path   d="M29.070 14.467l-0.571-1.505h0.481l0.349 0.967 0.327-0.967h0.471l-0.564 1.505v0.93h-0.492v-0.93z"></path>
<path   d="M16.92 16.462v0.128h-0.418v0.991h-0.175v-0.991h-0.42v-0.128h1.014z"></path>
<path   d="M18.232 17.581h-0.135c-0.014 0.001-0.027-0.003-0.038-0.011-0.010-0.006-0.018-0.015-0.023-0.026l-0.121-0.266h-0.58l-0.121 0.266c-0.003 0.011-0.010 0.021-0.018 0.030-0.011 0.007-0.024 0.011-0.038 0.011h-0.135l0.513-1.118h0.178l0.519 1.114zM17.383 17.166h0.484l-0.205-0.455c-0.015-0.034-0.028-0.070-0.038-0.105-0.007 0.021-0.013 0.042-0.019 0.059l-0.018 0.047-0.203 0.454z"></path>
<path   d="M19.116 17.471c0.032 0.001 0.064 0.001 0.096 0 0.028-0.002 0.055-0.007 0.082-0.013 0.025-0.005 0.050-0.012 0.074-0.020 0.023-0.008 0.045-0.018 0.069-0.027v-0.252h-0.205c-0.005 0-0.010-0-0.015-0.002s-0.009-0.004-0.013-0.007c-0.003-0.003-0.006-0.006-0.008-0.009s-0.003-0.007-0.002-0.011v-0.086h0.398v0.429c-0.032 0.020-0.067 0.038-0.103 0.053s-0.075 0.028-0.114 0.038c-0.042 0.011-0.085 0.018-0.128 0.023-0.050 0.005-0.1 0.007-0.15 0.007-0.088 0.001-0.176-0.013-0.258-0.042-0.077-0.027-0.147-0.066-0.205-0.117-0.057-0.051-0.102-0.111-0.132-0.177-0.032-0.074-0.048-0.153-0.047-0.232-0.001-0.080 0.015-0.159 0.046-0.234 0.029-0.066 0.075-0.127 0.132-0.177s0.128-0.090 0.205-0.116c0.088-0.029 0.181-0.043 0.275-0.042 0.048-0 0.095 0.003 0.143 0.010 0.042 0.006 0.083 0.015 0.122 0.028 0.036 0.012 0.070 0.026 0.103 0.044s0.061 0.037 0.089 0.058l-0.049 0.069c-0.004 0.006-0.010 0.012-0.017 0.015s-0.015 0.006-0.023 0.006c-0.011-0-0.022-0.003-0.032-0.009-0.015-0.007-0.032-0.016-0.050-0.027-0.022-0.012-0.045-0.022-0.069-0.030-0.031-0.011-0.062-0.019-0.094-0.025-0.043-0.007-0.087-0.010-0.13-0.010-0.068-0.001-0.135 0.010-0.198 0.031-0.057 0.020-0.109 0.050-0.151 0.089-0.043 0.040-0.075 0.088-0.095 0.139-0.046 0.121-0.046 0.252 0 0.373 0.022 0.053 0.057 0.101 0.103 0.141 0.042 0.038 0.093 0.069 0.15 0.089 0.065 0.019 0.134 0.027 0.203 0.022z"></path>
<path   d="M20.751 17.453h0.56v0.128h-0.731v-1.118h0.175l-0.004 0.991z"></path>
<path   d="M21.893 17.581h-0.175v-1.118h0.175v1.118z"></path>
<path   d="M22.545 16.468c0.010 0.005 0.020 0.012 0.027 0.020l0.75 0.843c-0.001-0.013-0.001-0.027 0-0.040 0-0.012 0-0.025 0-0.036v-0.797h0.153v1.123h-0.088c-0.013 0.001-0.026-0.001-0.038-0.006-0.011-0.006-0.020-0.013-0.028-0.021l-0.749-0.842c0 0.013 0 0.026 0 0.038s0 0.024 0 0.035v0.797h-0.147v-1.118h0.091c0.010 0 0.020 0.002 0.029 0.005z"></path>
<path   d="M24.766 16.462v0.123h-0.622v0.369h0.504v0.119h-0.504v0.382h0.622v0.123h-0.802v-1.116h0.802z"></path>
<path   d="M6.388 9.556l7.787 1.909v6.689l-7.787-1.908v-6.69zM5.889 8.986v7.585l8.785 2.154v-7.584l-8.785-2.155z"></path>
<path   d="M10.597 22.247l-8.786-2.156v-7.584l8.786 2.155v7.585z"></path>
<path   d="M6.035 9.47l7.686 1.885-3.268 2.823-7.687-1.886 3.27-2.822zM5.889 8.986l-4.078 3.52 8.786 2.155 4.077-3.52-8.785-2.155z"></path>
<path   d="M11.092 21.82l3.582-3.094-3.582-0.879v3.973z"></path>
</svg>
