<!-- Generated by IcoMoon.io -->
<svg version="1.1" xmlns="http://www.w3.org/2000/svg" width="32" height="32" viewBox="0 0 32 32">
<title>Logo-5</title>
<path   d="M8.078 20.448c0.074 0.083 0.113 0.188 0.111 0.295 0.004 0.070-0.010 0.14-0.039 0.204s-0.075 0.122-0.132 0.168c-0.143 0.099-0.32 0.147-0.499 0.136h-0.877v-1.869h0.859c0.17-0.010 0.338 0.034 0.476 0.124 0.055 0.043 0.099 0.096 0.128 0.157s0.042 0.127 0.038 0.193c0.005 0.103-0.030 0.204-0.1 0.286-0.067 0.074-0.159 0.126-0.261 0.146 0.116 0.019 0.221 0.076 0.296 0.16zM7.049 20.166h0.367c0.083 0.006 0.166-0.016 0.233-0.062 0.028-0.023 0.049-0.051 0.063-0.083s0.019-0.066 0.016-0.1c0.003-0.034-0.003-0.068-0.016-0.099s-0.034-0.060-0.061-0.083c-0.069-0.047-0.154-0.069-0.24-0.063h-0.361v0.49zM7.686 20.883c0.029-0.023 0.053-0.053 0.068-0.086s0.022-0.069 0.019-0.104c0.002-0.036-0.005-0.072-0.020-0.105s-0.039-0.063-0.069-0.086c-0.072-0.049-0.16-0.073-0.249-0.068h-0.385v0.514h0.39c0.088 0.005 0.175-0.018 0.246-0.065z"></path>
<path   d="M9.833 21.252l-0.478-0.73h-0.18v0.73h-0.411v-1.869h0.778c0.196-0.013 0.39 0.044 0.542 0.159 0.109 0.101 0.174 0.235 0.185 0.377s-0.034 0.282-0.127 0.396c-0.096 0.101-0.227 0.168-0.371 0.19l0.509 0.747h-0.447zM9.176 20.267h0.336c0.233 0 0.35-0.094 0.35-0.283 0.002-0.039-0.004-0.077-0.019-0.113s-0.038-0.069-0.067-0.097c-0.074-0.056-0.169-0.083-0.264-0.076h-0.34l0.004 0.569z"></path>
<path   d="M12.079 20.876h-0.819l-0.145 0.376h-0.431l0.752-1.848h0.466l0.749 1.848h-0.431l-0.142-0.376zM11.969 20.593l-0.299-0.789-0.299 0.789h0.598z"></path>
<path   d="M14.89 21.252h-0.408l-0.914-1.271v1.271h-0.407v-1.869h0.407l0.914 1.278v-1.278h0.408v1.869z"></path>
<path   d="M17.217 20.805c-0.084 0.141-0.213 0.256-0.369 0.33-0.178 0.082-0.375 0.123-0.573 0.118h-0.726v-1.869h0.726c0.198-0.005 0.395 0.035 0.573 0.115 0.156 0.072 0.285 0.186 0.369 0.326 0.084 0.152 0.128 0.32 0.128 0.49s-0.044 0.338-0.128 0.49zM16.751 20.76c0.116-0.124 0.18-0.282 0.18-0.446s-0.064-0.322-0.18-0.446c-0.141-0.112-0.324-0.17-0.511-0.159h-0.283v1.21h0.283c0.186 0.011 0.37-0.046 0.511-0.159z"></path>
<path   d="M12.334 8.986c0 0 5.264 1.82 5.153 4.453v4.454c0 0-5.261-1.821-5.151-4.454l-0.002-4.453z"></path>
<path   d="M22.177 16.851c0.994-0.627 2.144-1.015 3.345-1.129v-1.394c-1.383 0.488-2.557 1.373-3.345 2.523z"></path>
<path   d="M21.579 17.271c0.814-1.5 2.225-2.658 3.942-3.235v-4.018c0 0-7.497 2.592-7.339 6.342v6.341c0 0 0.334-0.116 0.86-0.333 0-0.203 0-0.407 0.024-0.613 0.155-1.741 1.059-3.354 2.513-4.485z"></path>
<path   d="M20.866 19.627c0.039-0.44 0.127-0.875 0.262-1.298-0.905 0.977-1.454 2.189-1.568 3.465-0.011 0.121-0.017 0.241-0.020 0.365 0.426-0.187 0.921-0.421 1.442-0.696-0.133-0.604-0.172-1.222-0.117-1.836z"></path>
<path   d="M21.165 19.649c-0.050 0.556-0.019 1.115 0.093 1.663 2.048-1.122 4.35-2.856 4.261-4.952v-0.183c-1.463 0.15-2.833 0.736-3.897 1.667-0.249 0.577-0.403 1.185-0.457 1.804z"></path>
</svg>
